<?xml version="1.0" encoding="utf-8"?>
<!-- Generator: Adobe Illustrator 22.1.0, SVG Export Plug-In . SVG Version: 6.00 Build 0)  -->
<svg version="1.1" id="Layer_1" xmlns="http://www.w3.org/2000/svg" xmlns:xlink="http://www.w3.org/1999/xlink" x="0px" y="0px"
	 viewBox="0 0 100 100" style="enable-background:new 0 0 100 100;" xml:space="preserve">
<style type="text/css">
	.st0{fill:#2D231F;}
</style>
<path class="st0" d="M36.5,34.7c0,0,1.4-12.2-5.3-13.8c0,0-0.6-0.2,0.1-0.4c0.6-0.2,7.9,0,7.9,0l10,0.7c0,0-4.7,1.9-4.6,8.4
	c0,0,6.5-8.2,17.4-8.6c10.9-0.4,17.3,6.6,17.3,6.6s10.1,8.7,9,23.5c0,0-0.2,13.6-7.8,22.1c-7.5,8.5-17.6,7.9-17.6,7.9
	s-6.1,0-10.2-2.4c0,0-5,3-8.2,3.6v6.9c0,0-0.5,4.8,5.2,7.7H32.1c0,0,4.3-2.7,4.3-7.5v-6.3c0,0-7.9-0.7-13.3-4.2s-7.7-8.1-7.7-8.1
	s-4-7-3.4-14.2c0,0,0.5-11.3,7.8-17.9l1.8,1.2c0,0-5.6,4.8-6.7,11.4c0,0-2.5,10.6,2.4,18s10,10.9,19.2,12c0,0,8.7,0.4,14.3-4.8
	c0,0,4.6-3.7,4.6-9.4c0,0,0.4-5.4-4.8-10.3s-6-5.1-6-5.1v17.5c0,0,1.7,3.2,6.2,6.2c0,0-0.1,0.8-1.5,1.3c0,0-4.3-3.8-4.8-4.8v6.8
	c0,0-3.2,2.4-7.9,0.8V46.4l-12.9-7.3c0,0-10.4-4.8-10.6-16.8s11.1-17,11.1-17S29.2,2.5,36,3.2s12.8,3.9,13.5,4c0,0,5.3,2,7.3-1.5
	v15.8c0,0-2.2-8.3-9.3-12.9s-13.7-4-13.7-4s-9.7,0.3-13.6,8.2S21.6,26,21.6,26s4.6,5.6,11.4,8.9s11.8,5.4,11.8,5.4
	s10.9,4.2,15.9,15.1s-3.2,19.2-3.2,19.2s-2.6,2.7-3.3,2.9c0,0,4.3,3.3,12.3,1.6c8-1.7,10.9-11.1,10.9-11.1s2.7-7,2.9-16.9
	s-1.6-14.8-1.6-14.8s-1.5-8.2-10.1-12.5s-22.1,4.4-24.3,9v6L36.5,34.7z"/>
</svg>
